<svg version="1.1" xmlns="http://www.w3.org/2000/svg" xmlns:xlink="http://www.w3.org/1999/xlink" width="73.64167" height="92.04943" viewBox="0,0,73.64167,92.04943"><g transform="translate(-283.67917,-133.97528)"><g data-paper-data="{&quot;isPaintingLayer&quot;:true}" fill-rule="nonzero" stroke-linecap="butt" stroke-linejoin="miter" stroke-miterlimit="10" stroke-dasharray="" stroke-dashoffset="0" style="mix-blend-mode: normal"><path d="M334.52917,158.94093h12.6c4.97056,0 9,4.65624 9,10.4v0c0,5.74376 -4.02944,10.4 -9,10.4v0h-12.6v37.44c-0.12426,5.02579 -3.75076,8.98359 -8.1,8.84c-4.34924,-0.14359 -7.77426,-4.33421 -7.65,-9.36c-0.12426,-3.73344 -2.84413,-6.64359 -6.075,-6.5c-3.23087,0.14359 -5.74926,3.28656 -5.625,7.02c-0.12426,4.8822 -3.65002,8.72359 -7.875,8.58c-4.22498,-0.14359 -7.54926,-4.2178 -7.425,-9.1v-19.24h-4.95c-2.7,0 -3.15,-0.52 -3.15,-3.64v-32.24c0,-3.12 0.45,-3.64 3.15,-3.64h4.95c0.24853,-13.49784 9.91918,-24.20719 21.6,-23.92c11.68082,0.28719 20.94853,11.46216 20.7,24.96" fill="#ff0000" stroke="none" stroke-width="0"/><path d="M336.9875,179c-2.20914,0 -4,-1.79086 -4,-4v-12.66667c0,-2.20914 1.79086,-4 4,-4h15.33333c2.20914,0 4,1.79086 4,4v12.66667c0,2.20914 -1.79086,4 -4,4z" fill="#ffffff" stroke="#000000" stroke-width="2"/></g></g></svg>